<svg
  viewBox="0 0 180 360"
  xmlns="http://www.w3.org/2000/svg"
  xmlns:xlink="http://www.w3.org/1999/xlink">
  <path
    fill="none"
    stroke="#ABB5FF"
    stroke-width="4"
    d="M 12,2
      L 168,2
      Q 180,0 178,12
      L 178,348
      Q 180,360 168,358
      L 12,358
      Q 0,360 2,348 
      L 2,12
      Q 0,0 12,2
      Z" />
  <svg x="70" y="12">
    <path
      fill="#ABB5FF"
      d="M 5,0
        L 35,0
        Q 40,0 40,5
        Q 40,10 35,10
        L 5,10
        Q 0,10 0,5
        Q 0,0 5,0
        Z" />
  </svg>
  <svg x="80" y="330">
    <path
      fill="#ABB5FF"
      d="M 10,0
        Q 20,0 20,10
        Q 20,20 10,20
        Q 0,20 0,10 
        Q 0,0 10,0
        Z" />
  </svg>
  <svg x="15" y="30">
    <path
      fill="#ABB5FF"
      d="M 10,0
        L 140,0
        Q 150,0 150,10
        L 150,280
        Q 150,290 140,290
        L 10,290
        Q 0,290 0,280 
        L 0,10
        Q 0,0 10,0
        Z" />
  </svg>
</svg>